<svg width="256" height="256" viewBox="0 0 256 256" fill="none" xmlns="http://www.w3.org/2000/svg">
<g clip-path="url(#clip0_746_210)">
<path d="M96.0002 192V200C96.0002 208.487 99.3716 216.626 105.373 222.628C111.374 228.629 119.513 232 128 232C136.487 232 144.626 228.629 150.628 222.628C156.629 216.626 160 208.487 160 200V192M56.2033 104C56.19 94.5122 58.0548 85.1155 61.6901 76.3516C65.3254 67.5878 70.6593 59.6301 77.3844 52.9373C84.1095 46.2445 92.0928 40.9489 100.874 37.3558C109.655 33.7627 119.061 31.9432 128.549 32.0021C168.138 32.2964 199.805 65.2034 199.805 104.904V112C199.805 147.816 207.298 168.599 213.898 179.958C214.609 181.172 214.987 182.552 214.995 183.958C215.002 185.365 214.639 186.749 213.941 187.97C213.243 189.191 212.235 190.207 211.02 190.914C209.804 191.622 208.423 191.997 207.016 192H48.9839C47.5771 191.997 46.1961 191.622 44.9803 190.914C43.7645 190.206 42.7568 189.191 42.059 187.969C41.3611 186.748 40.9977 185.364 41.0055 183.957C41.0133 182.55 41.3919 181.17 42.1032 179.957C48.7065 168.597 56.2032 147.814 56.2032 112L56.2033 104Z" stroke="black" stroke-width="16" stroke-linecap="round" stroke-linejoin="round"/>
</g>
<defs>
<clipPath id="clip0_746_210">
<rect width="256" height="256" fill="white"/>
</clipPath>
</defs>
</svg>
