<svg width="94" height="94" viewBox="0 0 94 94" fill="none" xmlns="http://www.w3.org/2000/svg">
<g clip-path="url(#clip0_1216_28)">
<path d="M20.9844 45.5545C20.303 45.5545 19.75 45.0015 19.75 44.3201V39.8492C19.75 39.4616 19.9302 39.0987 20.2388 38.8666C21.4979 37.9137 22.2188 36.4818 22.2188 34.9388V31.2357C22.2188 28.5127 20.0043 26.2982 17.2812 26.2982C14.5582 26.2982 12.3438 28.5127 12.3438 31.2357V34.9388C12.3438 36.4818 13.0646 37.9137 14.3237 38.8666C14.6323 39.0987 14.8125 39.4641 14.8125 39.8517V44.3226C14.8125 45.0039 14.2595 45.5569 13.5781 45.5569C12.8968 45.5569 12.3438 45.0015 12.3438 44.3201V40.4318C10.7662 39.0222 9.875 37.0521 9.875 34.9388V31.2357C9.875 27.1524 13.1979 23.8295 17.2812 23.8295C21.3646 23.8295 24.6875 27.1524 24.6875 31.2357V34.9388C24.6875 37.0521 23.7963 39.0197 22.2188 40.4318V44.3201C22.2188 45.0015 21.6658 45.5545 20.9844 45.5545Z" fill="#5751E1"/>
<path d="M18.5228 42.2217C17.9501 42.2217 17.4366 41.8192 17.3156 41.2366C17.1798 40.5676 17.6094 39.9158 18.2784 39.7801C20.5595 39.3085 22.2186 37.2743 22.2186 34.9388C22.2186 34.2575 22.7715 33.7045 23.4529 33.7045C24.1343 33.7045 24.6873 34.2575 24.6873 34.9388C24.6873 38.4395 22.1988 41.4909 18.7722 42.1945C18.6882 42.2118 18.6068 42.2217 18.5228 42.2217Z" fill="#5751E1"/>
<path d="M25.6107 47.49C25.4478 47.49 25.2824 47.4579 25.1244 47.3887L20.4979 45.4014C19.8709 45.1323 19.582 44.4065 19.8511 43.7794C20.1177 43.1499 20.8436 42.866 21.4706 43.1326L26.0971 45.12C26.7241 45.3891 27.013 46.1149 26.7439 46.7419C26.5439 47.211 26.0872 47.49 25.6107 47.49Z" fill="#5751E1"/>
<path d="M9.875 62.4333C9.70466 62.4333 9.52938 62.3987 9.36397 62.3222L4.63878 60.1744C3.32047 59.572 2.46875 58.2488 2.46875 56.8021V53.3804C2.46875 49.9192 4.51781 46.8086 7.68769 45.4557L13.0868 43.1129C13.7188 42.8413 14.4397 43.1277 14.7113 43.7523C14.9804 44.3769 14.694 45.1052 14.0694 45.3767L8.66531 47.722C6.399 48.6922 4.9375 50.9117 4.9375 53.3804V56.8021C4.9375 57.2835 5.22141 57.7279 5.66084 57.9278L10.386 60.0756C11.0057 60.3571 11.2797 61.0903 10.9983 61.71C10.7909 62.1642 10.3416 62.4333 9.875 62.4333Z" fill="#5751E1"/>
<path d="M22.0682 33.4823C19.6093 33.4823 17.259 32.6355 15.2717 31.0333C14.7434 30.6062 14.6594 29.831 15.0841 29.3002C15.5161 28.7694 16.2938 28.688 16.8196 29.1151C18.4045 30.3914 20.2857 31.0802 22.2138 31.0135C22.0953 28.3917 19.9277 26.2982 17.2812 26.2982C14.5582 26.2982 12.3438 28.5127 12.3438 31.2357V32.1492C12.3438 32.8305 11.7907 33.3835 11.1094 33.3835C10.428 33.3835 9.875 32.833 9.875 32.1492V31.2357C9.875 27.1524 13.1979 23.8295 17.2812 23.8295C21.3646 23.8295 24.6875 27.1524 24.6875 31.2357V32.0998C24.6875 32.7071 24.2456 33.2231 23.6482 33.3193C23.0779 33.4107 22.5841 33.4823 22.0682 33.4823Z" fill="#5751E1"/>
<path d="M65.4219 45.5545C64.7405 45.5545 64.1875 45.0015 64.1875 44.3201V39.8492C64.1875 39.4616 64.3677 39.0987 64.6763 38.8666C65.9354 37.9137 66.6562 36.4818 66.6562 34.9388V31.2357C66.6562 28.5127 64.4418 26.2982 61.7188 26.2982C58.9957 26.2982 56.7812 28.5127 56.7812 31.2357V34.9388C56.7812 36.4818 57.5021 37.9137 58.7612 38.8666C59.0698 39.0987 59.25 39.4641 59.25 39.8517V44.3226C59.25 45.0039 58.697 45.5569 58.0156 45.5569C57.3343 45.5569 56.7812 45.0039 56.7812 44.3226V40.4343C55.2037 39.0246 54.3125 37.0546 54.3125 34.9413V31.2382C54.3125 27.1549 57.6354 23.8319 61.7188 23.8319C65.8021 23.8319 69.125 27.1549 69.125 31.2382V34.9413C69.125 37.0546 68.2338 39.0222 66.6562 40.4343V44.3226C66.6562 45.0015 66.1032 45.5545 65.4219 45.5545Z" fill="#5751E1"/>
<path d="M62.9603 42.2217C62.3876 42.2217 61.8741 41.8192 61.7531 41.2366C61.6173 40.5676 62.0469 39.9158 62.7159 39.7801C64.997 39.3085 66.656 37.2743 66.656 34.9388C66.656 34.2575 67.2091 33.7045 67.8904 33.7045C68.5718 33.7045 69.1248 34.2575 69.1248 34.9388C69.1248 38.4395 66.6363 41.4909 63.2097 42.1945C63.1257 42.2118 63.0443 42.2217 62.9603 42.2217Z" fill="#5751E1"/>
<path d="M53.7519 47.3344C53.2754 47.3344 52.8187 47.0555 52.6187 46.5864C52.3496 45.9618 52.6385 45.2335 53.2656 44.9644L57.5291 43.1326C58.1512 42.8685 58.8795 43.1499 59.1486 43.7794C59.4177 44.404 59.1288 45.1323 58.5018 45.4014L54.2382 47.2332C54.0802 47.3023 53.9173 47.3344 53.7519 47.3344Z" fill="#5751E1"/>
<path d="M69.1249 62.4333C68.6583 62.4333 68.209 62.1642 68.0016 61.71C67.7202 61.0903 67.9942 60.3571 68.6139 60.0756L73.3391 57.9278C73.7785 57.7279 74.0624 57.286 74.0624 56.8021V53.3804C74.0624 50.9117 72.6009 48.6922 70.342 47.727L64.9305 45.3767C64.3059 45.1052 64.0195 44.3793 64.2886 43.7523C64.5602 43.1252 65.2761 42.8388 65.9131 43.1129L71.3172 45.4582C74.4821 46.8086 76.5311 49.9192 76.5311 53.3804V56.8021C76.5311 58.2488 75.6794 59.572 74.3611 60.1744L69.6359 62.3222C69.4705 62.3963 69.2952 62.4333 69.1249 62.4333Z" fill="#5751E1"/>
<path d="M42.7341 29.794C39.2235 29.794 35.5698 28.5571 33.5553 26.7451C33.0467 26.2883 33.0047 25.5082 33.4614 25.0021C33.9182 24.496 34.7057 24.4541 35.2044 24.9108C37.6386 27.0981 43.4697 28.2411 46.81 26.4488C47.4099 26.1254 48.1604 26.3501 48.4813 26.9524C48.8047 27.5548 48.5776 28.3004 47.9777 28.6238C46.4545 29.436 44.6152 29.794 42.7341 29.794Z" fill="#5751E1"/>
<path d="M39.4828 52.2201C35.3872 52.2201 33.2517 49.0255 32.6938 47.3344C32.479 46.6852 32.832 45.989 33.4788 45.7742C34.1256 45.5619 34.8193 45.9124 35.0341 46.5543C35.086 46.7024 36.1796 49.7489 39.4828 49.7489C42.8132 49.7489 43.9858 46.6086 44.0377 46.4753C44.2673 45.8359 44.9832 45.5026 45.6127 45.7297C46.2521 45.9569 46.5904 46.6555 46.3657 47.2974C46.2941 47.4998 44.5882 52.2201 39.4828 52.2201Z" fill="#5751E1"/>
<path d="M62.9531 62.0951C62.2718 62.0951 61.7188 61.5421 61.7188 60.8607V60.1719C61.7188 56.5108 59.4105 53.2372 55.9764 52.03L45.6793 48.3762C44.198 47.8603 43.2031 46.458 43.2031 44.8904V41.8538C43.2031 41.1724 43.7561 40.6194 44.4375 40.6194C45.1189 40.6194 45.6719 41.1724 45.6719 41.8538V44.8904C45.6719 45.4088 46.0052 45.8729 46.4989 46.0457L56.7985 49.702C61.2176 51.2548 64.1875 55.464 64.1875 60.1719V60.8632C64.1875 61.5446 63.6345 62.0951 62.9531 62.0951Z" fill="#5751E1"/>
<path d="M16.0469 62.0951C15.3655 62.0951 14.8125 61.5421 14.8125 60.8607V60.1941C14.8125 59.4239 14.894 58.6512 15.0544 57.8883C15.8494 54.1284 18.5996 50.9931 22.2237 49.6995L32.4986 46.0951C32.9948 45.9223 33.3281 45.4557 33.3281 44.9373V41.8513C33.3281 41.17 33.8811 40.617 34.5625 40.617C35.2439 40.617 35.7969 41.17 35.7969 41.8513V44.9373C35.7969 46.5025 34.802 47.9047 33.3158 48.4256L23.0483 52.0275C20.2265 53.0323 18.0885 55.4739 17.4689 58.3994C17.343 58.9919 17.2812 59.5967 17.2812 60.1941V60.8607C17.2812 61.5446 16.7282 62.0951 16.0469 62.0951Z" fill="#5751E1"/>
<path d="M39.5 44.8138C38.8186 44.8138 38.2656 44.2608 38.2656 43.5795C38.2656 42.8981 38.8186 42.3451 39.5 42.3451C42.0626 42.3451 46.9062 40.0245 46.9062 31.2357V27.5326C46.9062 23.4493 43.5833 20.1263 39.5 20.1263C35.4167 20.1263 32.0938 23.4493 32.0938 27.5326V31.2357C32.0938 35.4918 33.2318 38.7481 35.3821 40.6515C35.8932 41.1033 35.9425 41.8834 35.4883 42.3945C35.0316 42.908 34.2539 42.9499 33.7478 42.5006C31.8666 40.8367 29.625 37.5335 29.625 31.2357V27.5326C29.625 22.0865 34.0539 17.6576 39.5 17.6576C44.9461 17.6576 49.375 22.0865 49.375 27.5326V31.2357C49.375 41.9772 42.9167 44.8138 39.5 44.8138Z" fill="#5751E1"/>
<path d="M58.3071 84.3139C57.8529 84.3139 57.4184 84.0621 57.2011 83.6276C56.8999 83.0153 57.1493 82.2771 57.7615 81.9735L63.8667 78.9493C64.2099 78.7789 64.6197 78.7789 64.9604 78.9493L68.9499 80.9267L68.3006 76.5225C68.2463 76.1423 68.3697 75.7547 68.6413 75.4807L71.7593 72.2935L67.365 71.5455C66.9872 71.4813 66.6589 71.2418 66.4787 70.9012L64.4148 66.9561L62.3485 70.9012C62.1682 71.2418 61.8399 71.4813 61.4622 71.5455L57.0703 72.2935L60.1858 75.4807C60.6623 75.9695 60.6524 76.7496 60.1661 77.2261C59.6773 77.705 58.8947 77.6951 58.4207 77.2063L53.6585 72.3355C53.3375 72.0071 53.224 71.5282 53.3671 71.0912C53.5103 70.6543 53.8806 70.3333 54.3349 70.2568L60.4475 69.215L63.3236 63.7245C63.5384 63.3171 63.9605 63.0629 64.4173 63.0629C64.8789 63.0629 65.2961 63.3196 65.5109 63.7245L68.3845 69.215L74.4996 70.2568C74.9539 70.3333 75.3242 70.6567 75.4674 71.0912C75.6106 71.5257 75.497 72.0071 75.1761 72.3355L70.8385 76.7669L71.742 82.8993C71.8062 83.3535 71.6161 83.8078 71.2458 84.0769C70.8755 84.3484 70.3818 84.3904 69.972 84.183L64.4173 81.4304L58.8601 84.183C58.6799 84.2744 58.4923 84.3139 58.3071 84.3139Z" fill="#807AF9"/>
<path d="M32.2817 91.0313C32.0249 91.0313 31.7706 90.9523 31.5558 90.7968C31.1855 90.5277 30.993 90.0735 31.0596 89.6167L32.1409 82.2524L26.9368 76.9298C26.6159 76.6015 26.5023 76.1225 26.6455 75.6856C26.7887 75.2486 27.159 74.9252 27.6132 74.8511L34.9553 73.6019L38.4066 67.0079C38.8362 66.1932 40.1668 66.1932 40.5964 67.0079L44.0477 73.6019L51.3898 74.8511C51.844 74.9277 52.2143 75.2511 52.3575 75.6856C52.5007 76.1201 52.3871 76.6015 52.0662 76.9298L46.8596 82.2524L47.9434 89.6167C48.0076 90.071 47.8175 90.5252 47.4472 90.7943C47.0769 91.0684 46.5831 91.1054 46.1733 90.9005L39.5003 87.5948L32.8297 90.9005C32.6569 90.9869 32.4693 91.0313 32.2817 91.0313ZM30.3486 76.8879L34.3332 80.9638C34.6023 81.2403 34.7282 81.6254 34.6739 82.0056L33.8444 87.6417L38.9522 85.1113C39.2954 84.9384 39.7052 84.9384 40.0459 85.1113L45.1512 87.6417L44.3217 82.0056C44.2674 81.6254 44.3909 81.2378 44.6624 80.9638L48.6495 76.8879L43.0281 75.93C42.6504 75.8658 42.3221 75.6263 42.1418 75.2856L39.5003 70.237L36.8587 75.2856C36.6785 75.6263 36.3501 75.8658 35.9724 75.93L30.3486 76.8879Z" fill="#5751E1"/>
<path d="M20.8931 84.3139C20.708 84.3139 20.5228 84.2719 20.345 84.1855L14.7904 81.4328L9.2332 84.188C8.82586 84.3904 8.33458 84.3509 7.95933 84.0793C7.58901 83.8103 7.39645 83.356 7.46311 82.9018L8.36667 76.7694L4.02908 72.338C3.70814 72.0096 3.59458 71.5307 3.73776 71.0937C3.88095 70.6568 4.25126 70.3334 4.70551 70.2593L10.8206 69.2175L13.6967 63.727C13.9115 63.3196 14.3336 63.0654 14.7904 63.0654C15.252 63.0654 15.6692 63.3221 15.884 63.727L18.7576 69.2175L24.8703 70.2593C25.3245 70.3358 25.6948 70.6592 25.838 71.0937C25.9812 71.5282 25.8676 72.0096 25.5467 72.338L20.7845 77.2063C20.313 77.6952 19.5304 77.705 19.0391 77.2261C18.5527 76.7496 18.5429 75.9695 19.0193 75.4807L22.1349 72.2935L17.743 71.5455C17.3628 71.4813 17.0369 71.2419 16.8567 70.9012L14.7928 66.9561L12.7265 70.9012C12.5463 71.2419 12.2179 71.4813 11.8402 71.5455L7.44583 72.2935L10.5639 75.4807C10.833 75.7572 10.9589 76.1423 10.9045 76.5225L10.2553 80.9268L14.2472 78.9493C14.5904 78.7789 15.0002 78.7789 15.3409 78.9493L21.4436 81.9735C22.0559 82.2772 22.3052 83.0153 22.004 83.6276C21.7819 84.0621 21.3449 84.3139 20.8931 84.3139Z" fill="#807AF9"/>
<path d="M94 13.9234C93.4937 14.3003 93.2405 14.6772 92.9873 14.8029C91.7215 15.3055 90.4557 15.808 89.1899 16.3106C87.2911 16.9388 86.1519 18.1953 85.8987 20.2056C85.6456 21.839 85.3924 23.4724 85.0127 25.1058C84.8861 25.6083 84.5063 26.3622 84.1266 26.4879C83.3671 26.6135 83.3671 25.734 83.2405 25.2314C82.7342 23.7237 82.2278 22.0903 81.8481 20.5825C81.2152 18.4466 79.8228 17.3158 77.5443 17.3158C76.6582 17.3158 75.8987 17.1901 75.0127 17.0645C74.5063 17.0645 74.2532 16.8132 74 16.5619C74.2532 16.3106 74.3797 15.9337 74.6329 15.808C75.8987 15.3055 77.2911 14.8029 78.557 14.4259C79.8228 14.049 80.7089 13.1695 80.962 11.913C81.4684 9.90273 81.8481 7.89241 82.3544 6.00774C82.6076 5.37951 82.3544 4.5 83.2405 4.5C84.1266 4.5 84 5.25387 84.1266 5.75645C84.5063 7.51548 84.8861 9.14886 85.3924 10.9079C86.0253 13.1695 86.5316 13.5464 88.9367 13.5464C90.2025 13.5464 91.5949 13.4208 92.8608 13.4208C92.9873 13.4208 93.3671 13.6721 94 13.9234Z" fill="#434087"/>
<path d="M77 5.21168C76.7468 5.40015 76.6203 5.58862 76.4937 5.65144C75.8608 5.90273 75.2278 6.15402 74.5949 6.40531C73.6456 6.71942 73.0759 7.34765 72.9494 8.35281C72.8228 9.1695 72.6962 9.98619 72.5063 10.8029C72.443 11.0542 72.2532 11.4311 72.0633 11.4939C71.6835 11.5568 71.6835 11.117 71.6203 10.8657C71.3671 10.1118 71.1139 9.29514 70.9241 8.54127C70.6076 7.47329 69.9114 6.90789 68.7722 6.90789C68.3291 6.90789 67.9494 6.84507 67.5063 6.78225C67.2532 6.78225 67.1266 6.6566 67 6.53096C67.1266 6.40531 67.1899 6.21684 67.3165 6.15402C67.9494 5.90273 68.6456 5.65144 69.2785 5.46297C69.9114 5.27451 70.3544 4.83475 70.481 4.20652C70.7342 3.20137 70.9241 2.19621 71.1772 1.25387C71.3038 0.939757 71.1772 0.5 71.6203 0.5C72.0633 0.5 72 0.876935 72.0633 1.12823C72.2532 2.00774 72.443 2.82443 72.6962 3.70395C73.0127 4.83475 73.2658 5.02322 74.4684 5.02322C75.1013 5.02322 75.7975 4.96039 76.4304 4.96039C76.4937 4.96039 76.6835 5.08604 77 5.21168Z" fill="#6663A9"/>
</g>
<defs>
<clipPath id="clip0_1216_28">
<rect width="94" height="93" fill="white" transform="translate(0 0.5)"/>
</clipPath>
</defs>
</svg>
