<svg width="94" height="91" viewBox="0 0 94 91" fill="none" xmlns="http://www.w3.org/2000/svg">
<g clip-path="url(#clip0_1216_54)">
<path d="M66.8667 23.1328H1.13333C0.50745 23.1328 0 23.6403 0 24.2661V69.5995C0 70.2254 0.50745 70.7328 1.13333 70.7328H21.5979C21.6319 71.1102 21.6875 71.4819 21.7543 71.8503L15.538 79.2589C15.1354 79.7381 15.1976 80.453 15.6768 80.8556C15.8118 80.9691 15.9716 81.0494 16.1432 81.0903L22.9863 82.7246L25.7845 89.1846C26.0332 89.7589 26.7005 90.023 27.2748 89.7742C27.4366 89.7042 27.5797 89.5974 27.693 89.4623L33.8991 82.0661C33.9331 82.0661 33.966 82.0661 34 82.0661C34.034 82.0661 34.0669 82.0661 34.1009 82.0661L40.307 89.4623C40.709 89.942 41.4239 90.0049 41.9036 89.6028C42.0386 89.4896 42.1454 89.3464 42.2155 89.1846L45.0137 82.7246L51.8568 81.0903C52.4657 80.9453 52.8418 80.3341 52.6967 79.7252C52.6558 79.5537 52.5755 79.3939 52.462 79.2589L46.2457 71.8503C46.3125 71.4819 46.3681 71.1102 46.4021 70.7328H66.8667C67.4926 70.7328 68 70.2254 68 69.5995V24.2661C68 23.6401 67.4926 23.1328 66.8667 23.1328ZM27.1354 86.5995L24.8404 81.3068C24.6986 80.9796 24.411 80.7382 24.0641 80.6551L18.4541 79.3144L22.5227 74.4649C22.5443 74.5147 22.5726 74.5601 22.5941 74.6099C22.7415 74.9499 22.9013 75.2729 23.0781 75.5937C23.1506 75.7274 23.2277 75.8589 23.3047 75.9892C23.4604 76.2483 23.625 76.5022 23.7989 76.7508C23.9201 76.9242 24.0471 77.0908 24.1774 77.2608C24.3293 77.4535 24.4857 77.6416 24.65 77.8275C24.8143 78.0133 25.0059 78.2185 25.1951 78.4066C25.3345 78.546 25.4785 78.6809 25.6258 78.8135C25.7482 78.9268 25.8581 79.0458 25.9862 79.1535C26.1143 79.2611 26.2344 79.3337 26.3568 79.4289C26.4123 79.4719 26.4599 79.5218 26.5166 79.5637C26.6186 79.6408 26.7263 79.7077 26.8305 79.7813C26.9937 79.8947 27.1547 80.0171 27.3235 80.1213C27.6454 80.3276 27.9775 80.5157 28.3141 80.688C28.4433 80.7537 28.5747 80.8138 28.7062 80.875C29.0084 81.0171 29.3125 81.1463 29.6185 81.2626C29.7069 81.2955 29.7942 81.3329 29.8826 81.3635C30.3119 81.5143 30.7493 81.6411 31.1927 81.7431L31.2052 81.7465L27.1354 86.5995ZM36.1284 79.5592C35.6086 79.669 35.0812 79.7384 34.5508 79.7666H34.5361C34.357 79.7757 34.1779 79.7881 33.9977 79.7881C33.8175 79.7881 33.6385 79.7757 33.4594 79.7666H33.4447C32.9154 79.7383 32.3891 79.6693 31.8705 79.5603L31.7753 79.5411C31.5735 79.4969 31.3741 79.4425 31.1769 79.3858C31.0941 79.362 31.0103 79.3405 30.9287 79.3144C30.787 79.2702 30.6476 79.2181 30.5082 79.1682C30.3688 79.1183 30.2362 79.0696 30.1025 79.0141C30.0197 78.9789 29.9381 78.9415 29.8565 78.9007C29.6707 78.8169 29.4859 78.7319 29.3057 78.6378L29.2151 78.5879C28.7479 78.338 28.3008 78.0523 27.8777 77.7334C27.642 77.5577 27.4244 77.3639 27.2102 77.1724C26.9569 76.9464 26.7151 76.7077 26.486 76.4573C26.3953 76.3598 26.2979 76.2669 26.2117 76.166C25.8953 75.7937 25.6065 75.3986 25.3481 74.9839C25.3096 74.9227 25.2767 74.8581 25.2348 74.7947C24.9938 74.3921 24.7817 73.9727 24.6001 73.5401C24.5843 73.5015 24.5661 73.463 24.5514 73.4267C24.3507 72.9309 24.1892 72.4202 24.0686 71.899C24.0686 71.8786 24.0527 71.8627 24.0471 71.8423C23.8825 71.1061 23.7996 70.3538 23.8 69.5995C23.7966 63.9661 28.3605 59.3968 33.9938 59.3932C39.6271 59.3898 44.1965 63.9538 44.2 69.587C44.2004 70.35 44.1153 71.1106 43.9461 71.8547C43.9405 71.8739 43.9291 71.8909 43.9246 71.9102C43.8042 72.4308 43.6431 72.9412 43.4429 73.4368C43.4271 73.4765 43.4089 73.5161 43.3919 73.5501C43.2109 73.9801 42.9995 74.3967 42.7595 74.7968C42.7221 74.8603 42.6881 74.9271 42.6462 74.9906C42.3878 75.4047 42.0995 75.7994 41.7837 76.1715C41.6987 76.2713 41.6024 76.3619 41.5129 76.4594C41.2807 76.7121 41.0359 76.9531 40.7796 77.1813C40.5643 77.3729 40.3501 77.5667 40.1155 77.7412C39.8809 77.9157 39.6712 78.0631 39.4423 78.2093L39.4287 78.2172C39.2235 78.3475 39.0139 78.4677 38.8008 78.581C38.7589 78.6037 38.7181 78.6275 38.6761 78.649C38.505 78.7385 38.3361 78.819 38.1559 78.8972C38.0653 78.938 37.9757 78.9799 37.8839 79.0173C37.757 79.0706 37.6278 79.1171 37.4986 79.1635C37.3694 79.21 37.2096 79.2701 37.0623 79.3154C36.9841 79.3403 36.9047 79.3619 36.8254 79.3845C36.6248 79.4412 36.4231 79.4979 36.2191 79.5409L36.1284 79.5592ZM49.5459 79.311L43.9359 80.6517C43.589 80.7348 43.3014 80.9762 43.1596 81.3034L40.8646 86.5995L36.7948 81.7499H36.805C37.2501 81.6482 37.6891 81.5211 38.1197 81.3691C38.2047 81.3397 38.2863 81.3045 38.3713 81.2739C38.6875 81.1538 38.9991 81.0223 39.3051 80.8761C39.4298 80.8183 39.5545 80.7628 39.6769 80.6993C40.0169 80.5225 40.3569 80.331 40.6833 80.1213C40.8408 80.0216 40.9915 79.9094 41.1445 79.8017C41.2579 79.7235 41.3712 79.6521 41.4845 79.5694C41.5446 79.5241 41.5979 79.4708 41.6568 79.4243C41.7701 79.3314 41.9016 79.2532 42.0172 79.1557C42.1328 79.0583 42.2507 78.9291 42.3708 78.8225C42.5204 78.6865 42.6677 78.5494 42.8105 78.4077C42.9971 78.2212 43.1777 78.0292 43.3523 77.832C43.5166 77.6461 43.673 77.458 43.826 77.2653C43.9563 77.0987 44.0833 76.9253 44.2045 76.7553C44.3791 76.5083 44.5445 76.2544 44.6975 75.996C44.7769 75.8645 44.8539 75.7319 44.9242 75.5971C45.1003 75.2775 45.2608 74.9506 45.4059 74.6167C45.4263 74.5589 45.4557 74.5125 45.4773 74.4615L49.5459 79.311ZM65.7333 68.4661H46.4089C45.7939 61.6123 39.7391 56.5547 32.8852 57.1698C26.8837 57.7084 22.1275 62.4646 21.5889 68.4661H2.26667V25.3995H65.7333V68.4661Z" fill="#807AF9"/>
<path d="M5.66653 27.6663C5.04065 27.6663 4.5332 28.1737 4.5332 28.7996V33.3329H6.79987V29.9329H10.1999V27.6663H5.66653Z" fill="#5751E1"/>
<path d="M62.3331 27.6663H57.7998V29.9329H61.1998V33.3329H63.4665V28.7996C63.4665 28.1736 62.959 27.6663 62.3331 27.6663Z" fill="#5751E1"/>
<path d="M61.1998 60.533V63.933H57.7998V66.1997H62.3331C62.959 66.1997 63.4665 65.6922 63.4665 65.0663V60.533H61.1998Z" fill="#5751E1"/>
<path d="M6.79987 63.933V60.533H4.5332V65.0663C4.5332 65.6922 5.04065 66.1997 5.66653 66.1997H10.1999V63.933H6.79987Z" fill="#5751E1"/>
<path d="M47.5999 35.5996H20.3999V37.8662H47.5999V35.5996Z" fill="#5751E1"/>
<path d="M54.4001 42.3995H13.6001V44.6662H54.4001V42.3995Z" fill="#5751E1"/>
<path d="M34.0002 61.6663C29.6187 61.6663 26.0669 65.2181 26.0669 69.5996C26.0718 73.9789 29.6209 77.528 34.0002 77.5329C38.3817 77.5329 41.9335 73.9811 41.9335 69.5996C41.9335 65.2181 38.3817 61.6663 34.0002 61.6663ZM34.0002 75.2663C30.8707 75.2663 28.3335 72.7291 28.3335 69.5996C28.3372 66.4716 30.8722 63.9366 34.0002 63.9329C37.1298 63.9329 39.6669 66.47 39.6669 69.5996C39.6669 72.7291 37.1298 75.2663 34.0002 75.2663Z" fill="#5751E1"/>
<path d="M94 13.9234C93.4937 14.3003 93.2405 14.6772 92.9873 14.8029C91.7215 15.3055 90.4557 15.808 89.1899 16.3106C87.2911 16.9388 86.1519 18.1953 85.8987 20.2056C85.6456 21.839 85.3924 23.4724 85.0127 25.1058C84.8861 25.6083 84.5063 26.3622 84.1266 26.4879C83.3671 26.6135 83.3671 25.734 83.2405 25.2314C82.7342 23.7237 82.2278 22.0903 81.8481 20.5825C81.2152 18.4466 79.8228 17.3158 77.5443 17.3158C76.6582 17.3158 75.8987 17.1901 75.0127 17.0645C74.5063 17.0645 74.2532 16.8132 74 16.5619C74.2532 16.3106 74.3797 15.9337 74.6329 15.808C75.8987 15.3055 77.2911 14.8029 78.557 14.4259C79.8228 14.049 80.7089 13.1695 80.962 11.913C81.4684 9.90273 81.8481 7.89241 82.3544 6.00774C82.6076 5.37951 82.3544 4.5 83.2405 4.5C84.1266 4.5 84 5.25387 84.1266 5.75645C84.5063 7.51548 84.8861 9.14886 85.3924 10.9079C86.0253 13.1695 86.5316 13.5464 88.9367 13.5464C90.2025 13.5464 91.5949 13.4208 92.8608 13.4208C92.9873 13.4208 93.3671 13.6721 94 13.9234Z" fill="#434087"/>
<path d="M77 5.21168C76.7468 5.40015 76.6203 5.58862 76.4937 5.65144C75.8608 5.90273 75.2278 6.15402 74.5949 6.40531C73.6456 6.71942 73.0759 7.34765 72.9494 8.35281C72.8228 9.1695 72.6962 9.98619 72.5063 10.8029C72.443 11.0542 72.2532 11.4311 72.0633 11.4939C71.6835 11.5568 71.6835 11.117 71.6203 10.8657C71.3671 10.1118 71.1139 9.29514 70.9241 8.54127C70.6076 7.47329 69.9114 6.90789 68.7722 6.90789C68.3291 6.90789 67.9494 6.84507 67.5063 6.78225C67.2532 6.78225 67.1266 6.6566 67 6.53096C67.1266 6.40531 67.1899 6.21684 67.3165 6.15402C67.9494 5.90273 68.6456 5.65144 69.2785 5.46297C69.9114 5.27451 70.3544 4.83475 70.481 4.20652C70.7342 3.20137 70.9241 2.19621 71.1772 1.25387C71.3038 0.939757 71.1772 0.5 71.6203 0.5C72.0633 0.5 72 0.876935 72.0633 1.12823C72.2532 2.00774 72.443 2.82443 72.6962 3.70395C73.0127 4.83475 73.2658 5.02322 74.4684 5.02322C75.1013 5.02322 75.7975 4.96039 76.4304 4.96039C76.4937 4.96039 76.6835 5.08604 77 5.21168Z" fill="#6663A9"/>
</g>
<defs>
<clipPath id="clip0_1216_54">
<rect width="94" height="90" fill="white" transform="translate(0 0.5)"/>
</clipPath>
</defs>
</svg>
