<svg width="94" height="90" viewBox="0 0 94 90" fill="none" xmlns="http://www.w3.org/2000/svg">
<g clip-path="url(#clip0_1216_48)">
<path d="M77.4138 35.6896L59.7118 22.7369C59.4201 22.5221 59.0478 22.4485 58.6963 22.5362L37.4309 27.9301C36.7799 28.096 36.3867 28.7581 36.5526 29.4089C36.6221 29.6818 36.7843 29.9222 37.0113 30.0888L42.6422 34.1996L41.426 40.3657C40.7631 43.8075 46.2908 49.2562 53.74 50.7034C55.0466 50.9556 56.3742 51.0819 57.7048 51.0805C59.7448 51.0932 61.7735 50.777 63.7129 50.144C66.6926 49.1529 68.681 47.4987 69.0277 45.7292L70.244 39.5812L77 37.8725C77.6509 37.7066 78.0441 37.0445 77.8782 36.3936C77.8087 36.1208 77.6465 35.8804 77.4196 35.7138L77.4138 35.6896ZM66.6563 45.2611C66.5164 45.9726 65.1969 47.0854 62.9529 47.8334C60.1195 48.7203 57.1089 48.8835 54.1962 48.3077C47.3551 46.9759 43.5362 42.3483 43.8585 40.8281L44.8376 35.787L54.7132 43.0355C54.9212 43.1888 55.1724 43.2718 55.4308 43.2727C55.5337 43.2734 55.6361 43.259 55.7348 43.2302L67.6293 40.2201L66.6563 45.2611ZM55.7105 40.7368L40.5383 29.6449L58.7388 25.0355L73.8927 36.1212L55.7105 40.7368Z" fill="#807AF9"/>
<path d="M29.8113 51.3117C29.4391 51.5265 29.2079 51.9218 29.2031 52.3516V74.0487C29.2079 74.4784 29.4391 74.8736 29.8113 75.0886C29.9941 75.2017 30.2044 75.2626 30.4194 75.2649C30.6159 75.2667 30.81 75.2208 30.9849 75.1311L51.7212 64.2764C52.3157 63.9636 52.544 63.2282 52.2313 62.6339C52.1167 62.4162 51.9388 62.2384 51.7212 62.1238L31.0031 51.2692C30.6258 51.0742 30.174 51.0903 29.8113 51.3117ZM31.6357 54.3522L48.5348 63.2001L31.654 72.0418L31.6357 54.3522Z" fill="#5751E1"/>
<path d="M74.2638 82.0515H68.0186C68.1268 81.7113 68.1821 81.3564 68.1828 80.9995V52.8625C68.1828 52.1908 67.6382 51.6462 66.9665 51.6462C66.2948 51.6462 65.7503 52.1908 65.7503 52.8625V80.9994C65.7402 81.5904 65.253 82.0614 64.662 82.0513C64.6622 82.0513 64.6618 82.0513 64.662 82.0513H10.8933C10.3023 82.0615 9.81493 81.5907 9.80477 80.9997C9.80477 80.9998 9.80477 80.9995 9.80477 80.9997V44.1847C9.81478 43.5937 10.302 43.1227 10.893 43.1328H37.7775C38.4492 43.1328 38.9938 42.5882 38.9938 41.9165C38.9938 41.2448 38.4492 40.7002 37.7775 40.7002H10.8933C8.9602 40.6935 7.38573 42.2516 7.37238 44.1846V80.9992C7.3731 81.3563 7.4284 81.711 7.53653 82.0512H1.29146C0.619759 82.0512 0.0751953 82.5958 0.0751953 83.2675V83.5715C0.0751953 86.308 2.22791 89.3485 5.11633 89.3485H70.4388C73.3273 89.3485 75.48 86.308 75.48 83.5715V83.2675C75.48 82.5961 74.9354 82.0515 74.2638 82.0515ZM70.4388 86.9163H5.11633C4.06436 86.9163 2.9941 85.7974 2.63531 84.4839H72.9199C72.5611 85.7974 71.4908 86.9163 70.4388 86.9163Z" fill="#807AF9"/>
<path d="M94 13.9234C93.4937 14.3003 93.2405 14.6772 92.9873 14.8029C91.7215 15.3055 90.4557 15.808 89.1899 16.3106C87.2911 16.9388 86.1519 18.1953 85.8987 20.2056C85.6456 21.839 85.3924 23.4724 85.0127 25.1058C84.8861 25.6083 84.5063 26.3622 84.1266 26.4879C83.3671 26.6135 83.3671 25.734 83.2405 25.2314C82.7342 23.7237 82.2278 22.0903 81.8481 20.5825C81.2152 18.4466 79.8228 17.3158 77.5443 17.3158C76.6582 17.3158 75.8987 17.1901 75.0127 17.0645C74.5063 17.0645 74.2532 16.8132 74 16.5619C74.2532 16.3106 74.3797 15.9337 74.6329 15.808C75.8987 15.3055 77.2911 14.8029 78.557 14.4259C79.8228 14.049 80.7089 13.1695 80.962 11.913C81.4684 9.90273 81.8481 7.89241 82.3544 6.00774C82.6076 5.37951 82.3544 4.5 83.2405 4.5C84.1266 4.5 84 5.25387 84.1266 5.75645C84.5063 7.51548 84.8861 9.14886 85.3924 10.9079C86.0253 13.1695 86.5316 13.5464 88.9367 13.5464C90.2025 13.5464 91.5949 13.4208 92.8608 13.4208C92.9873 13.4208 93.3671 13.6721 94 13.9234Z" fill="#434087"/>
<path d="M77 5.21168C76.7468 5.40015 76.6203 5.58862 76.4937 5.65144C75.8608 5.90273 75.2278 6.15402 74.5949 6.40531C73.6456 6.71942 73.0759 7.34765 72.9494 8.35281C72.8228 9.1695 72.6962 9.98619 72.5063 10.8029C72.443 11.0542 72.2532 11.4311 72.0633 11.4939C71.6835 11.5568 71.6835 11.117 71.6203 10.8657C71.3671 10.1118 71.1139 9.29514 70.9241 8.54127C70.6076 7.47329 69.9114 6.90789 68.7722 6.90789C68.3291 6.90789 67.9494 6.84507 67.5063 6.78225C67.2532 6.78225 67.1266 6.6566 67 6.53096C67.1266 6.40531 67.1899 6.21684 67.3165 6.15402C67.9494 5.90273 68.6456 5.65144 69.2785 5.46297C69.9114 5.27451 70.3544 4.83475 70.481 4.20652C70.7342 3.20137 70.9241 2.19621 71.1772 1.25387C71.3038 0.939757 71.1772 0.5 71.6203 0.5C72.0633 0.5 72 0.876935 72.0633 1.12823C72.2532 2.00774 72.443 2.82443 72.6962 3.70395C73.0127 4.83475 73.2658 5.02322 74.4684 5.02322C75.1013 5.02322 75.7975 4.96039 76.4304 4.96039C76.4937 4.96039 76.6835 5.08604 77 5.21168Z" fill="#6663A9"/>
</g>
<defs>
<clipPath id="clip0_1216_48">
<rect width="94" height="89" fill="white" transform="translate(0 0.5)"/>
</clipPath>
</defs>
</svg>
