<svg width="84" height="82" viewBox="0 0 84 82" fill="none" xmlns="http://www.w3.org/2000/svg">
<g clip-path="url(#clip0_1216_65)">
<mask id="mask0_1216_65" style="mask-type:luminance" maskUnits="userSpaceOnUse" x="0" y="19" width="62" height="63">
<path d="M62 19.5H0V81.5H62V19.5Z" fill="white"/>
</mask>
<g mask="url(#mask0_1216_65)">
<path d="M24.8327 26.6361C24.6075 26.4108 24.295 26.2812 23.9766 26.2812C23.6581 26.2812 23.3457 26.4107 23.1204 26.6361C22.8952 26.8613 22.7656 27.1737 22.7656 27.4922C22.7656 27.8107 22.8952 28.1231 23.1204 28.3482C23.3457 28.5736 23.6581 28.7031 23.9766 28.7031C24.295 28.7031 24.6075 28.5736 24.8327 28.3482C25.0579 28.1231 25.1875 27.8107 25.1875 27.4922C25.1875 27.1737 25.0579 26.8613 24.8327 26.6361Z" fill="#5751E1"/>
<path d="M19.5014 26.2812H14.6367C13.9679 26.2812 13.4258 26.8235 13.4258 27.4922C13.4258 28.1609 13.9679 28.7031 14.6367 28.7031H19.5014C20.1702 28.7031 20.7124 28.1609 20.7124 27.4922C20.7124 26.8235 20.1702 26.2812 19.5014 26.2812Z" fill="#5751E1"/>
<path d="M20.4727 33.0625H14.6367C13.9679 33.0625 13.4258 33.6048 13.4258 34.2734C13.4258 34.9421 13.9679 35.4844 14.6367 35.4844H20.4727C21.1415 35.4844 21.6836 34.9421 21.6836 34.2734C21.6836 33.6048 21.1415 33.0625 20.4727 33.0625Z" fill="#5751E1"/>
<path d="M61.5326 44.7018C61.5327 44.7014 61.5329 44.7012 61.5331 44.7008L53.5409 38.477C53.5352 38.4726 53.5291 38.4691 53.5234 38.4647V37.1797C53.5234 36.511 52.9813 35.9688 52.3125 35.9688C51.6437 35.9688 51.1016 36.511 51.1016 37.1797V53.6081C51.1016 53.6155 51.1025 53.6226 51.1027 53.63L41.0828 63.6499L39.9226 62.5961C38.1093 60.9487 35.8997 59.8505 33.5317 59.3917L36.6758 56.2476C37.1487 55.7747 37.1487 55.008 36.6758 54.535L32.6082 50.4673L50.3344 42.9101C50.7044 42.7523 50.972 42.4211 51.0484 42.0262C51.1248 41.6313 51.0002 41.2242 50.7158 40.9398L44.9276 35.1515C45.4175 34.3519 45.6802 33.4311 45.6802 32.4696C45.6802 31.0947 45.1448 29.8023 44.1727 28.83C43.2006 27.8579 41.908 27.3225 40.5331 27.3225C39.5716 27.3225 38.6508 27.5852 37.8512 28.0751L32.063 22.2869C31.7784 22.0023 31.3715 21.8773 30.9763 21.9543C30.5813 22.0309 30.2502 22.2986 30.0925 22.6687L21.9319 41.8348L17.5396 46.227C16.3054 47.4612 15.6256 49.1022 15.6256 50.8477C15.6256 52.5931 16.3054 54.234 17.5396 55.4682C18.7738 56.7024 20.4148 57.3822 22.1603 57.3822C23.9057 57.3822 25.5467 56.7025 26.7809 55.4682L27.2427 55.0064L31.3906 59.1543C31.2606 59.1506 31.1303 59.1479 30.9998 59.1479C27.6933 59.1479 24.5245 60.3723 22.0771 62.5957L20.9169 63.6496L10.897 53.6297C10.8971 53.6223 10.8981 53.6151 10.8981 53.6076V21.9219H24.459C25.1278 21.9219 25.6699 21.3796 25.6699 20.7109C25.6699 20.0423 25.1278 19.5 24.459 19.5H9.6875C9.0187 19.5 8.47656 20.0423 8.47656 20.7109V38.2712C8.46615 38.2791 8.45513 38.2859 8.44496 38.2941L0.45277 44.7121C0.452891 44.7123 0.452648 44.7118 0.45277 44.7121C0.176797 44.934 0 45.2746 0 45.6562V75.3242C0 78.7295 2.77038 81.5 6.17578 81.5H55.8242C59.2296 81.5 62 78.7295 62 75.3242V45.6562C62 45.268 61.8167 44.9234 61.5326 44.7018ZM53.5234 41.5329L58.9635 45.7692L53.5234 51.2092V41.5329ZM40.5332 29.7447C41.2611 29.7447 41.9455 30.0281 42.4603 30.5429C42.975 31.0576 43.2584 31.7419 43.2584 32.4699C43.2584 32.7702 43.2076 33.0621 43.1147 33.3388L39.6643 29.8883C39.941 29.7954 40.2329 29.7447 40.5332 29.7447ZM31.6185 25.2676L36.8922 30.5412C36.8927 30.5417 36.8932 30.5423 36.8936 30.5429C36.8941 30.5435 36.8947 30.5439 36.8953 30.5444L42.4602 36.1092L47.7361 41.3852L45.1653 42.4812L30.5235 27.8394L31.6185 25.2676ZM29.5006 30.2417L42.7638 43.5049L30.7629 48.6214L24.3889 42.2473L29.5006 30.2417ZM25.0686 53.756C24.2919 54.5328 23.2591 54.9606 22.1605 54.9606C21.062 54.9606 20.0292 54.5328 19.2523 53.756C18.4755 52.9793 18.0477 51.9465 18.0477 50.8479C18.0477 49.7493 18.4755 48.7165 19.2523 47.9397L22.9543 44.2378L28.7703 50.0544L25.0686 53.756ZM28.9555 53.2941L30.4827 51.767L34.107 55.3913L32.5798 56.9185L28.9555 53.2941ZM8.47656 41.3747V51.2094L3.02214 45.7549L8.47656 41.3747ZM4.52055 78.5452C4.48628 78.5763 4.45468 78.6094 4.42477 78.6433C3.23478 78.013 2.42188 76.7621 2.42188 75.3242V48.5798L19.1225 65.2803L4.52055 78.5452ZM7.53566 79.0781L11.5347 75.4453H20.4233C21.0921 75.4453 21.6342 74.9031 21.6342 74.2344C21.6342 73.5657 21.0921 73.0234 20.4233 73.0234H14.2007L23.7059 64.3885C27.8643 60.611 34.1358 60.611 38.2942 64.3885L54.4643 79.0781H7.53566ZM59.5781 75.3242C59.5781 76.7621 58.7652 78.013 57.5752 78.6433C57.5453 78.6092 57.5137 78.5763 57.4795 78.5452L42.8776 65.2803L59.5781 48.5798V75.3242Z" fill="#807AF9"/>
<path d="M53.2167 19.9025C52.7438 19.4298 51.977 19.4298 51.5042 19.9025L46.6125 24.7942C46.1396 25.2671 46.1396 26.0339 46.6125 26.5069C46.849 26.7432 47.1588 26.8616 47.4687 26.8616C47.7786 26.8616 48.0886 26.7432 48.325 26.5069L53.2167 21.6152C53.6896 21.1423 53.6896 20.3755 53.2167 19.9025Z" fill="#5751E1"/>
<path d="M42.917 19.5C42.2482 19.5 41.7061 20.0423 41.7061 20.7109V23.1433C41.7061 23.812 42.2482 24.3543 42.917 24.3543C43.5858 24.3543 44.1279 23.812 44.1279 23.1433V20.7109C44.1279 20.0423 43.5858 19.5 42.917 19.5Z" fill="#5751E1"/>
<path d="M52.3956 28.8873H49.8818C49.213 28.8873 48.6709 29.4296 48.6709 30.0983C48.6709 30.7669 49.213 31.3092 49.8818 31.3092H52.3956C53.0644 31.3092 53.6066 30.7669 53.6066 30.0983C53.6066 29.4296 53.0644 28.8873 52.3956 28.8873Z" fill="#5751E1"/>
<path d="M26.2448 73.3782C26.0184 73.153 25.7071 73.0234 25.3887 73.0234C25.069 73.0234 24.7578 73.1529 24.5313 73.3782C24.3061 73.6035 24.1777 73.9159 24.1777 74.2344C24.1777 74.5529 24.3061 74.8653 24.5313 75.0904C24.7578 75.3157 25.0702 75.4453 25.3887 75.4453C25.7071 75.4453 26.0184 75.3157 26.2448 75.0904C26.47 74.8653 26.5996 74.5529 26.5996 74.2344C26.5996 73.9159 26.47 73.6035 26.2448 73.3782Z" fill="white"/>
</g>
<path d="M84 13.9234C83.4937 14.3003 83.2405 14.6772 82.9873 14.8029C81.7215 15.3055 80.4557 15.808 79.1899 16.3106C77.2911 16.9388 76.1519 18.1953 75.8987 20.2056C75.6456 21.839 75.3924 23.4724 75.0127 25.1058C74.8861 25.6083 74.5063 26.3622 74.1266 26.4879C73.3671 26.6135 73.3671 25.734 73.2405 25.2314C72.7342 23.7237 72.2278 22.0903 71.8481 20.5825C71.2152 18.4466 69.8228 17.3158 67.5443 17.3158C66.6582 17.3158 65.8987 17.1901 65.0127 17.0645C64.5063 17.0645 64.2532 16.8132 64 16.5619C64.2532 16.3106 64.3797 15.9337 64.6329 15.808C65.8987 15.3055 67.2911 14.8029 68.557 14.4259C69.8228 14.049 70.7089 13.1695 70.962 11.913C71.4684 9.90273 71.8481 7.89241 72.3544 6.00774C72.6076 5.37951 72.3544 4.5 73.2405 4.5C74.1266 4.5 74 5.25387 74.1266 5.75645C74.5063 7.51548 74.8861 9.14886 75.3924 10.9079C76.0253 13.1695 76.5316 13.5464 78.9367 13.5464C80.2025 13.5464 81.5949 13.4208 82.8608 13.4208C82.9873 13.4208 83.3671 13.6721 84 13.9234Z" fill="#434087"/>
<path d="M67 5.21168C66.7468 5.40015 66.6203 5.58862 66.4937 5.65144C65.8608 5.90273 65.2278 6.15402 64.5949 6.40531C63.6456 6.71942 63.0759 7.34765 62.9494 8.35281C62.8228 9.1695 62.6962 9.98619 62.5063 10.8029C62.443 11.0542 62.2532 11.4311 62.0633 11.4939C61.6835 11.5568 61.6835 11.117 61.6203 10.8657C61.3671 10.1118 61.1139 9.29514 60.9241 8.54127C60.6076 7.47329 59.9114 6.90789 58.7722 6.90789C58.3291 6.90789 57.9494 6.84507 57.5063 6.78225C57.2532 6.78225 57.1266 6.6566 57 6.53096C57.1266 6.40531 57.1899 6.21684 57.3165 6.15402C57.9494 5.90273 58.6456 5.65144 59.2785 5.46297C59.9114 5.27451 60.3544 4.83475 60.481 4.20652C60.7342 3.20137 60.9241 2.19621 61.1772 1.25387C61.3038 0.939757 61.1772 0.5 61.6203 0.5C62.0633 0.5 62 0.876935 62.0633 1.12823C62.2532 2.00774 62.443 2.82443 62.6962 3.70395C63.0127 4.83475 63.2658 5.02322 64.4684 5.02322C65.1013 5.02322 65.7975 4.96039 66.4304 4.96039C66.4937 4.96039 66.6835 5.08604 67 5.21168Z" fill="#6663A9"/>
</g>
<defs>
<clipPath id="clip0_1216_65">
<rect width="84" height="81" fill="white" transform="translate(0 0.5)"/>
</clipPath>
</defs>
</svg>
