<?xml version="1.0" encoding="UTF-8" standalone="no"?><svg xmlns="http://www.w3.org/2000/svg" xmlns:xlink="http://www.w3.org/1999/xlink" clip-rule="evenodd" fill="#000000" fill-rule="evenodd" height="124.4" image-rendering="optimizeQuality" preserveAspectRatio="xMidYMid meet" shape-rendering="geometricPrecision" text-rendering="geometricPrecision" version="1" viewBox="-0.0 -0.7 324.6 124.4" width="324.6" zoomAndPan="magnify"><g><g id="change1_2"><path d="M154.08 18.66c-10.96,-10.96 -26.11,-17.74 -42.84,-17.74 -16.72,0 -31.87,6.78 -42.83,17.74 -10.96,10.97 -17.74,26.11 -17.74,42.84 0,16.72 6.78,31.87 17.74,42.83 10.96,10.96 26.11,17.74 42.83,17.74 16.73,0 31.88,-6.78 42.84,-17.74 10.96,-10.96 17.74,-26.11 17.74,-42.83 0,-16.73 -6.78,-31.87 -17.74,-42.84z" fill="#f6921e" fill-rule="nonzero"/></g><g id="change2_1"><path d="M135.65 64.19l-35.99 20.78c-0.99,0.57 -2.12,0.57 -3.11,0 -0.99,-0.57 -1.56,-1.55 -1.56,-2.7l0 -41.55c0,-1.14 0.57,-2.12 1.56,-2.69 0.99,-0.58 2.12,-0.58 3.11,0l35.99 20.77c0.99,0.57 1.55,1.55 1.55,2.7 0,1.14 -0.56,2.12 -1.55,2.69z" fill="#fefefe"/></g><g id="change1_3"><path d="M24.43 115.56c1.37,2.37 0.54,5.41 -1.83,6.78 -2.37,1.36 -5.41,0.54 -6.78,-1.83 -5.15,-8.93 -9.13,-18.51 -11.79,-28.46 -2.67,-9.96 -4.03,-20.24 -4.03,-30.55 0,-10.31 1.36,-20.59 4.03,-30.55 2.66,-9.96 6.64,-19.53 11.79,-28.46 1.37,-2.37 4.41,-3.19 6.78,-1.83 2.37,1.36 3.2,4.41 1.83,6.78 -4.72,8.18 -8.35,16.96 -10.79,26.08 -2.44,9.12 -3.68,18.54 -3.68,27.98 0,9.44 1.24,18.86 3.68,27.98 2.44,9.12 6.07,17.9 10.79,26.08zm21.2 -12.25c1.37,2.38 0.55,5.42 -1.83,6.78 -2.37,1.37 -5.41,0.54 -6.77,-1.83 -4.08,-7.07 -7.24,-14.66 -9.36,-22.55 -2.11,-7.89 -3.19,-16.04 -3.19,-24.21 0,-8.17 1.08,-16.32 3.19,-24.22 2.12,-7.89 5.27,-15.49 9.36,-22.57 1.37,-2.37 4.42,-3.18 6.79,-1.81 2.37,1.38 3.18,4.42 1.81,6.8 -3.65,6.32 -6.45,13.1 -8.34,20.16 -1.89,7.05 -2.85,14.33 -2.85,21.64 0,7.3 0.96,14.58 2.85,21.64 1.89,7.06 4.69,13.85 8.34,20.17z" fill="#f6921e"/></g><g fill="#f6921e" fill-rule="nonzero" id="change1_1"><path d="M218.65 64.53c0,0.78 -0.03,1.46 -0.1,2 -0.06,0.54 -0.17,0.99 -0.29,1.34 -0.14,0.36 -0.3,0.62 -0.5,0.77 -0.2,0.16 -0.43,0.24 -0.69,0.24l-23.46 0c-0.86,0 -1.59,-0.26 -2.19,-0.77 -0.59,-0.51 -0.89,-1.35 -0.89,-2.51l0 -46.51c0,-0.26 0.08,-0.5 0.26,-0.72 0.17,-0.2 0.46,-0.38 0.85,-0.51 0.39,-0.14 0.93,-0.23 1.61,-0.31 0.67,-0.08 1.51,-0.12 2.51,-0.12 1.03,0 1.88,0.04 2.54,0.12 0.65,0.08 1.19,0.17 1.58,0.31 0.39,0.13 0.67,0.31 0.85,0.51 0.17,0.22 0.26,0.46 0.26,0.72l0 41.2 16.08 0c0.26,0 0.5,0.07 0.69,0.22 0.2,0.14 0.36,0.37 0.5,0.71 0.13,0.33 0.23,0.76 0.29,1.31 0.07,0.54 0.1,1.2 0.1,2zm16.6 2.93c0,0.26 -0.08,0.5 -0.26,0.72 -0.18,0.2 -0.46,0.37 -0.85,0.51 -0.39,0.12 -0.93,0.23 -1.58,0.31 -0.66,0.08 -1.51,0.12 -2.54,0.12 -1,0 -1.84,-0.04 -2.51,-0.12 -0.68,-0.08 -1.22,-0.19 -1.61,-0.31 -0.39,-0.14 -0.67,-0.31 -0.85,-0.51 -0.18,-0.22 -0.26,-0.46 -0.26,-0.72l0 -48.37c0,-0.26 0.08,-0.5 0.26,-0.72 0.18,-0.2 0.46,-0.38 0.88,-0.51 0.4,-0.14 0.93,-0.23 1.59,-0.31 0.66,-0.08 1.5,-0.12 2.5,-0.12 1.03,0 1.88,0.04 2.54,0.12 0.65,0.08 1.19,0.17 1.58,0.31 0.39,0.13 0.67,0.31 0.85,0.51 0.18,0.22 0.26,0.46 0.26,0.72l0 48.37zm36.65 -0.39c-0.14,0.45 -0.3,0.81 -0.51,1.08 -0.22,0.28 -0.56,0.49 -1.03,0.64 -0.47,0.14 -1.12,0.24 -1.95,0.28 -0.81,0.04 -1.87,0.05 -3.2,0.05 -1.05,0 -1.95,0 -2.71,-0.01 -0.76,-0.01 -1.39,-0.06 -1.92,-0.11 -0.53,-0.05 -0.96,-0.13 -1.28,-0.23 -0.34,-0.11 -0.61,-0.24 -0.84,-0.4 -0.21,-0.15 -0.39,-0.36 -0.51,-0.57 -0.12,-0.23 -0.23,-0.51 -0.34,-0.85l-15.22 -45.4c-0.31,-0.96 -0.51,-1.71 -0.57,-2.26 -0.06,-0.55 0.06,-0.97 0.4,-1.26 0.32,-0.27 0.89,-0.44 1.67,-0.51 0.8,-0.07 1.9,-0.09 3.34,-0.09 1.21,0 2.16,0.02 2.85,0.08 0.68,0.05 1.21,0.15 1.58,0.27 0.36,0.13 0.63,0.34 0.76,0.59 0.15,0.27 0.29,0.6 0.42,1l12.44 39.5 0.04 0 12.24 -39.31c0.11,-0.45 0.24,-0.81 0.39,-1.08 0.16,-0.28 0.43,-0.5 0.82,-0.66 0.38,-0.15 0.93,-0.26 1.65,-0.31 0.7,-0.06 1.69,-0.08 2.93,-0.08 1.22,0 2.16,0.04 2.84,0.12 0.67,0.08 1.13,0.27 1.39,0.57 0.24,0.31 0.32,0.74 0.23,1.29 -0.08,0.56 -0.3,1.28 -0.61,2.22l-15.3 45.44zm52.72 -2.28c0,0.77 -0.03,1.4 -0.09,1.93 -0.07,0.51 -0.17,0.93 -0.3,1.24 -0.14,0.33 -0.3,0.55 -0.5,0.7 -0.19,0.15 -0.42,0.22 -0.65,0.22l-25.68 0c-0.87,0 -1.6,-0.26 -2.19,-0.77 -0.6,-0.51 -0.89,-1.35 -0.89,-2.51l0 -44.65c0,-1.16 0.29,-2 0.89,-2.51 0.59,-0.51 1.32,-0.77 2.19,-0.77l25.56 0c0.23,0 0.45,0.07 0.63,0.2 0.18,0.14 0.34,0.37 0.48,0.69 0.12,0.34 0.23,0.76 0.29,1.27 0.07,0.53 0.1,1.17 0.1,1.97 0,0.74 -0.03,1.37 -0.1,1.89 -0.06,0.52 -0.16,0.93 -0.29,1.24 -0.14,0.33 -0.3,0.56 -0.48,0.71 -0.18,0.15 -0.4,0.21 -0.63,0.21l-18.27 0 0 12.48 15.39 0c0.25,0 0.46,0.07 0.65,0.22 0.2,0.15 0.37,0.36 0.5,0.67 0.14,0.3 0.23,0.71 0.3,1.23 0.07,0.51 0.09,1.14 0.09,1.87 0,0.77 -0.02,1.4 -0.09,1.9 -0.07,0.5 -0.16,0.9 -0.3,1.2 -0.13,0.31 -0.3,0.53 -0.5,0.65 -0.19,0.13 -0.4,0.2 -0.65,0.2l-15.39 0 0 14.43 18.39 0c0.24,0 0.46,0.06 0.65,0.21 0.2,0.15 0.36,0.38 0.5,0.7 0.13,0.31 0.23,0.73 0.3,1.25 0.06,0.52 0.09,1.16 0.09,1.93z"/><path d="M205.81 98.57c0,1.16 -0.22,2.17 -0.65,3.05 -0.43,0.87 -1.01,1.6 -1.75,2.19 -0.75,0.58 -1.61,1.02 -2.59,1.32 -0.99,0.29 -2.05,0.44 -3.18,0.44 -0.76,0 -1.46,-0.07 -2.12,-0.19 -0.65,-0.13 -1.23,-0.28 -1.73,-0.46 -0.5,-0.18 -0.92,-0.36 -1.25,-0.56 -0.34,-0.2 -0.58,-0.37 -0.73,-0.52 -0.15,-0.15 -0.25,-0.36 -0.32,-0.64 -0.06,-0.28 -0.09,-0.68 -0.09,-1.2 0,-0.36 0.01,-0.65 0.04,-0.89 0.02,-0.23 0.05,-0.43 0.11,-0.58 0.05,-0.14 0.12,-0.25 0.2,-0.31 0.09,-0.06 0.19,-0.09 0.3,-0.09 0.16,0 0.39,0.09 0.68,0.28 0.29,0.19 0.66,0.4 1.11,0.62 0.46,0.23 1,0.44 1.64,0.62 0.63,0.2 1.36,0.29 2.19,0.29 0.55,0 1.03,-0.06 1.46,-0.19 0.44,-0.14 0.81,-0.32 1.11,-0.55 0.3,-0.24 0.53,-0.53 0.69,-0.88 0.16,-0.35 0.24,-0.74 0.24,-1.17 0,-0.5 -0.13,-0.93 -0.41,-1.29 -0.27,-0.36 -0.62,-0.67 -1.07,-0.95 -0.43,-0.28 -0.93,-0.54 -1.49,-0.78 -0.55,-0.25 -1.13,-0.5 -1.72,-0.78 -0.6,-0.27 -1.17,-0.58 -1.72,-0.93 -0.56,-0.34 -1.06,-0.75 -1.5,-1.24 -0.44,-0.48 -0.79,-1.05 -1.07,-1.71 -0.27,-0.66 -0.4,-1.45 -0.4,-2.37 0,-1.05 0.19,-1.98 0.58,-2.78 0.39,-0.8 0.92,-1.46 1.58,-1.99 0.67,-0.53 1.45,-0.93 2.35,-1.19 0.9,-0.26 1.86,-0.39 2.88,-0.39 0.51,0 1.04,0.04 1.56,0.12 0.52,0.08 1.01,0.19 1.47,0.32 0.45,0.14 0.85,0.3 1.2,0.46 0.35,0.18 0.59,0.32 0.7,0.43 0.11,0.11 0.19,0.21 0.23,0.29 0.04,0.08 0.07,0.18 0.1,0.32 0.03,0.13 0.05,0.29 0.06,0.49 0.01,0.2 0.02,0.44 0.02,0.74 0,0.33 -0.01,0.61 -0.02,0.83 -0.02,0.23 -0.05,0.42 -0.09,0.57 -0.04,0.14 -0.1,0.25 -0.17,0.32 -0.08,0.07 -0.17,0.1 -0.3,0.1 -0.12,0 -0.32,-0.08 -0.6,-0.24 -0.27,-0.15 -0.61,-0.33 -1,-0.52 -0.4,-0.19 -0.86,-0.36 -1.38,-0.51 -0.53,-0.15 -1.1,-0.23 -1.73,-0.23 -0.48,0 -0.91,0.06 -1.28,0.18 -0.36,0.12 -0.66,0.29 -0.9,0.5 -0.25,0.2 -0.43,0.45 -0.55,0.75 -0.12,0.3 -0.18,0.61 -0.18,0.94 0,0.49 0.13,0.91 0.4,1.27 0.27,0.36 0.63,0.68 1.08,0.95 0.45,0.28 0.96,0.54 1.53,0.78 0.56,0.25 1.14,0.51 1.74,0.78 0.59,0.27 1.17,0.58 1.73,0.93 0.57,0.35 1.08,0.76 1.53,1.24 0.44,0.48 0.8,1.05 1.07,1.71 0.28,0.65 0.41,1.41 0.41,2.3zm20.63 -13.6c0,0.33 -0.01,0.61 -0.04,0.85 -0.03,0.23 -0.07,0.42 -0.13,0.56 -0.06,0.15 -0.13,0.25 -0.22,0.31 -0.08,0.07 -0.18,0.11 -0.28,0.11l-5.51 0 0 17.77c0,0.11 -0.03,0.22 -0.11,0.31 -0.07,0.09 -0.2,0.17 -0.36,0.22 -0.17,0.06 -0.41,0.1 -0.7,0.14 -0.29,0.03 -0.65,0.05 -1.08,0.05 -0.43,0 -0.79,-0.02 -1.08,-0.05 -0.29,-0.04 -0.52,-0.08 -0.69,-0.14 -0.17,-0.05 -0.29,-0.13 -0.37,-0.22 -0.07,-0.09 -0.11,-0.2 -0.11,-0.31l0 -17.77 -5.51 0c-0.11,0 -0.21,-0.04 -0.29,-0.11 -0.08,-0.06 -0.15,-0.16 -0.21,-0.31 -0.05,-0.14 -0.09,-0.33 -0.12,-0.56 -0.03,-0.24 -0.04,-0.52 -0.04,-0.85 0,-0.33 0.01,-0.62 0.04,-0.86 0.03,-0.24 0.07,-0.43 0.12,-0.57 0.06,-0.15 0.13,-0.25 0.21,-0.31 0.08,-0.07 0.18,-0.09 0.29,-0.09l15.52 0c0.1,0 0.2,0.02 0.28,0.09 0.09,0.06 0.16,0.16 0.22,0.31 0.06,0.14 0.1,0.33 0.13,0.57 0.03,0.24 0.04,0.53 0.04,0.86zm21.89 19.64c0,0.12 -0.02,0.23 -0.07,0.31 -0.05,0.09 -0.15,0.16 -0.32,0.22 -0.17,0.05 -0.42,0.09 -0.75,0.11 -0.33,0.03 -0.78,0.04 -1.34,0.04 -0.48,0 -0.86,-0.01 -1.14,-0.04 -0.29,-0.02 -0.51,-0.06 -0.68,-0.12 -0.16,-0.07 -0.28,-0.14 -0.35,-0.24 -0.06,-0.1 -0.12,-0.22 -0.16,-0.35l-1.99 -4.94c-0.24,-0.56 -0.47,-1.06 -0.7,-1.49 -0.23,-0.43 -0.48,-0.79 -0.76,-1.08 -0.28,-0.29 -0.61,-0.51 -0.97,-0.66 -0.36,-0.15 -0.79,-0.22 -1.26,-0.22l-1.41 0 0 8.42c0,0.11 -0.03,0.22 -0.11,0.31 -0.07,0.09 -0.19,0.17 -0.36,0.22 -0.17,0.06 -0.4,0.1 -0.68,0.14 -0.28,0.03 -0.65,0.05 -1.08,0.05 -0.43,0 -0.8,-0.02 -1.09,-0.05 -0.29,-0.04 -0.51,-0.08 -0.68,-0.14 -0.17,-0.05 -0.29,-0.13 -0.36,-0.22 -0.07,-0.09 -0.1,-0.2 -0.1,-0.31l0 -20.02c0,-0.5 0.13,-0.86 0.38,-1.08 0.26,-0.22 0.57,-0.33 0.94,-0.33l5.71 0c0.58,0 1.06,0.01 1.43,0.03 0.38,0.02 0.72,0.05 1.03,0.08 0.88,0.13 1.68,0.35 2.39,0.65 0.71,0.31 1.31,0.71 1.81,1.2 0.49,0.5 0.87,1.08 1.13,1.75 0.26,0.68 0.39,1.45 0.39,2.33 0,0.73 -0.09,1.4 -0.28,2.01 -0.19,0.61 -0.47,1.15 -0.83,1.63 -0.36,0.47 -0.81,0.89 -1.34,1.24 -0.54,0.35 -1.15,0.63 -1.83,0.85 0.33,0.16 0.64,0.35 0.93,0.58 0.29,0.22 0.56,0.5 0.82,0.83 0.26,0.32 0.5,0.69 0.73,1.11 0.22,0.41 0.44,0.88 0.66,1.4l1.87 4.36c0.16,0.43 0.28,0.74 0.33,0.95 0.06,0.2 0.09,0.35 0.09,0.47zm-5.79 -14.97c0,-0.73 -0.16,-1.35 -0.49,-1.84 -0.34,-0.5 -0.88,-0.86 -1.63,-1.06 -0.22,-0.06 -0.48,-0.1 -0.77,-0.13 -0.29,-0.04 -0.69,-0.06 -1.2,-0.06l-2.02 0 0 6.25 2.29 0c0.64,0 1.19,-0.08 1.67,-0.23 0.48,-0.15 0.88,-0.37 1.2,-0.65 0.32,-0.27 0.55,-0.61 0.71,-0.99 0.16,-0.39 0.24,-0.82 0.24,-1.29zm25.03 13.78c0,0.33 -0.01,0.61 -0.04,0.83 -0.03,0.23 -0.07,0.41 -0.13,0.54 -0.06,0.14 -0.13,0.24 -0.22,0.3 -0.08,0.07 -0.18,0.09 -0.28,0.09l-11.06 0c-0.37,0 -0.68,-0.11 -0.94,-0.33 -0.25,-0.22 -0.38,-0.58 -0.38,-1.08l0 -19.22c0,-0.5 0.13,-0.86 0.38,-1.08 0.26,-0.22 0.57,-0.33 0.94,-0.33l11.01 0c0.1,0 0.19,0.02 0.28,0.08 0.07,0.06 0.14,0.16 0.2,0.3 0.05,0.14 0.1,0.33 0.13,0.55 0.03,0.22 0.04,0.5 0.04,0.85 0,0.32 -0.01,0.58 -0.04,0.81 -0.03,0.22 -0.07,0.4 -0.13,0.53 -0.06,0.14 -0.13,0.24 -0.2,0.31 -0.09,0.06 -0.18,0.09 -0.28,0.09l-7.86 0 0 5.37 6.62 0c0.11,0 0.2,0.03 0.28,0.1 0.09,0.06 0.16,0.15 0.22,0.29 0.06,0.12 0.1,0.3 0.13,0.52 0.03,0.23 0.04,0.49 0.04,0.81 0,0.33 -0.01,0.6 -0.04,0.82 -0.03,0.21 -0.07,0.39 -0.13,0.51 -0.06,0.14 -0.13,0.23 -0.22,0.28 -0.08,0.06 -0.17,0.09 -0.28,0.09l-6.62 0 0 6.21 7.91 0c0.11,0 0.2,0.03 0.28,0.09 0.09,0.07 0.16,0.17 0.22,0.31 0.06,0.13 0.1,0.31 0.13,0.53 0.03,0.23 0.04,0.5 0.04,0.83zm24.51 0.1c0.13,0.4 0.22,0.73 0.25,0.97 0.04,0.24 -0.01,0.42 -0.13,0.54 -0.13,0.11 -0.35,0.19 -0.67,0.22 -0.31,0.03 -0.75,0.04 -1.31,0.04 -0.58,0 -1.03,-0.01 -1.35,-0.02 -0.33,-0.02 -0.57,-0.06 -0.75,-0.11 -0.16,-0.05 -0.28,-0.12 -0.35,-0.21 -0.07,-0.09 -0.13,-0.21 -0.17,-0.36l-1.45 -4.43 -8.31 0 -1.39 4.31c-0.05,0.16 -0.11,0.3 -0.18,0.4 -0.07,0.11 -0.19,0.19 -0.36,0.26 -0.16,0.06 -0.39,0.1 -0.69,0.12 -0.31,0.03 -0.7,0.04 -1.19,0.04 -0.52,0 -0.93,-0.02 -1.23,-0.05 -0.29,-0.04 -0.5,-0.12 -0.61,-0.25 -0.11,-0.13 -0.15,-0.32 -0.12,-0.56 0.03,-0.23 0.12,-0.55 0.26,-0.95l6.79 -19.57c0.06,-0.19 0.14,-0.34 0.24,-0.46 0.08,-0.12 0.23,-0.21 0.43,-0.27 0.2,-0.07 0.47,-0.11 0.83,-0.13 0.35,-0.01 0.81,-0.02 1.39,-0.02 0.67,0 1.21,0.01 1.6,0.02 0.4,0.02 0.71,0.06 0.93,0.13 0.22,0.06 0.38,0.15 0.48,0.28 0.09,0.12 0.18,0.29 0.24,0.51l6.82 19.55zm-10.12 -16.19l-0.02 0 -3.07 9.38 6.19 0 -3.1 -9.38zm41.79 17.24c0,0.11 -0.03,0.22 -0.09,0.31 -0.07,0.09 -0.18,0.17 -0.34,0.22 -0.17,0.06 -0.39,0.1 -0.66,0.14 -0.27,0.03 -0.62,0.05 -1.04,0.05 -0.41,0 -0.76,-0.02 -1.03,-0.05 -0.27,-0.04 -0.49,-0.08 -0.65,-0.14 -0.16,-0.05 -0.28,-0.13 -0.34,-0.22 -0.07,-0.09 -0.1,-0.2 -0.1,-0.31l0 -17.95 -0.04 0 -6.37 17.94c-0.04,0.14 -0.11,0.26 -0.22,0.36 -0.1,0.1 -0.24,0.18 -0.42,0.24 -0.17,0.05 -0.4,0.09 -0.66,0.11 -0.28,0.01 -0.61,0.02 -0.99,0.02 -0.39,0 -0.72,-0.01 -0.99,-0.04 -0.27,-0.03 -0.5,-0.08 -0.68,-0.14 -0.17,-0.06 -0.31,-0.14 -0.41,-0.23 -0.1,-0.09 -0.17,-0.2 -0.21,-0.32l-6.14 -17.94 -0.04 0 0 17.95c0,0.11 -0.03,0.22 -0.09,0.31 -0.07,0.09 -0.18,0.17 -0.35,0.22 -0.18,0.06 -0.4,0.1 -0.66,0.14 -0.27,0.03 -0.61,0.05 -1.03,0.05 -0.42,0 -0.76,-0.02 -1.03,-0.05 -0.28,-0.04 -0.5,-0.08 -0.66,-0.14 -0.16,-0.05 -0.28,-0.13 -0.34,-0.22 -0.07,-0.09 -0.1,-0.2 -0.1,-0.31l0 -19.64c0,-0.58 0.16,-1.03 0.46,-1.33 0.31,-0.31 0.72,-0.46 1.24,-0.46l2.93 0c0.52,0 0.97,0.04 1.35,0.12 0.37,0.09 0.7,0.23 0.97,0.43 0.27,0.2 0.5,0.46 0.68,0.78 0.18,0.33 0.35,0.73 0.48,1.21l4.75 13.13 0.07 0 4.92 -13.1c0.14,-0.48 0.31,-0.88 0.48,-1.21 0.18,-0.33 0.39,-0.6 0.62,-0.8 0.23,-0.2 0.51,-0.35 0.82,-0.44 0.32,-0.08 0.7,-0.12 1.11,-0.12l3.03 0c0.31,0 0.57,0.04 0.79,0.12 0.22,0.07 0.41,0.19 0.55,0.35 0.14,0.15 0.25,0.33 0.32,0.56 0.08,0.22 0.11,0.47 0.11,0.76l0 19.64z"/></g></g></svg>