<svg width="34" height="34" viewBox="0 0 34 34" fill="none" xmlns="http://www.w3.org/2000/svg">
<path fill-rule="evenodd" clip-rule="evenodd" d="M32.555 8.6275C31.6327 6.987 30.6319 6.68525 28.594 6.5705C26.5583 6.43238 21.4391 6.375 17.0042 6.375C12.5609 6.375 7.43962 6.43238 5.406 6.56838C3.37237 6.68525 2.36937 6.98487 1.43862 8.6275C0.48875 10.2659 0 13.0879 0 18.0561V18.0731C0 23.0201 0.48875 25.8634 1.43862 27.4848C2.36937 29.1252 3.37025 29.4228 5.40387 29.5609C7.43962 29.6799 12.5609 29.75 17.0042 29.75C21.4391 29.75 26.5583 29.6799 28.5961 29.563C30.634 29.4249 31.6349 29.1274 32.5571 27.4869C33.5155 25.8655 34 23.0222 34 18.0752V18.0583C34 13.0879 33.5155 10.2659 32.555 8.6275Z" fill="#EB1700"/>
<path fill-rule="evenodd" clip-rule="evenodd" d="M12.75 24.4375V11.6875L23.375 18.0625L12.75 24.4375Z" fill="white"/>
</svg>
